<svg width="1184" height="1567" viewBox="0 0 1184 1567" fill="none" xmlns="http://www.w3.org/2000/svg">
<path d="M464.678 631.142C445.389 607.697 380.903 529.829 358.533 500.944C350.478 490.544 332.739 468.942 328.206 452.839C324.997 441.444 328.009 424.03 328.206 412.054C328.706 381.512 335.016 352.818 351.997 327.347C384.957 277.907 421.614 227.919 474.09 197.933C521.33 170.939 559.48 129.439 616.314 127.605C642.131 126.772 666.355 118.193 692.655 118.193C716.384 118.193 727.407 129.569 745.99 143.292C785.008 172.105 812.783 195.043 829.128 240.81C851.676 303.944 869.39 363.125 869.39 430.094C869.39 483.063 859.14 516.851 822.331 558.461C781.493 604.626 708.617 631.139 651.871 647.352C622.426 655.764 592.628 660.547 562.457 665.13C546.601 667.538 533.471 674.655 518.535 679.771C502.022 685.426 482.396 683.607 465.201 685.261C437.203 687.953 401.76 693.541 375.265 680.293C344.908 665.115 327.435 621.672 314.088 593.495C294.329 551.781 295.264 505.178 295.264 460.159C295.264 419.28 299.925 394.274 319.578 357.151C339.889 318.785 368.482 285.708 389.121 247.869C399.512 228.819 422.033 221.298 437.488 208.652C449.444 198.87 480.741 203.355 493.96 202.116C549.816 196.88 608.576 180.611 662.328 165.253" stroke="white" stroke-width="30" stroke-linecap="round"/>
<path d="M291.886 400.589C328.823 362.722 306.088 131.722 351.809 85.2552C359.914 77.0173 469.504 51.7001 488.29 35.4265C502.896 22.774 592.882 26.7446 609.331 18.9277C638.628 5.00477 699.572 37.3563 730.233 29.1049C757.211 21.8449 796.499 20.0595 821.666 35.4265C840.017 46.6318 853.372 67.1205 866.647 85.2552C881.292 105.26 877.864 136.328 886.051 159.626C892.129 176.924 887.227 208.128 887.227 226.746C887.227 243.976 887.227 261.205 887.227 278.434C887.227 316.673 887.227 354.913 887.227 393.152C887.227 412.323 875.292 411.379 862.972 413.976C825.815 421.809 788.633 420.669 751.107 420.669C731.121 420.669 712.441 425.255 692.602 428.106C643.68 435.138 594.734 440.271 545.604 444.84C468.026 452.055 389.503 454.136 311.878 454.136C301.256 454.136 288.056 456.882 277.627 453.95C274.251 453.001 276.01 437.184 276.01 434.056C276.01 418.19 278.656 403.134 278.656 387.202" stroke="white" stroke-width="30" stroke-linecap="round"/>
<path d="M432.538 454.751C451.618 463.665 473.239 479.472 494.73 470.602C505.135 466.307 515.675 462.485 525.879 457.968C530.003 456.142 539.518 451.488 539.135 446.002" stroke="white" stroke-width="30" stroke-linecap="round"/>
<path d="M684.631 429.673C701.659 446.371 734.445 447.013 750.011 427.394" stroke="white" stroke-width="30" stroke-linecap="round"/>
<path d="M327.24 658.818C316.497 658.555 305.79 654.181 295.026 655.666C282.61 657.379 270.744 673.166 261.062 680.177C246.051 691.046 230.803 702.032 217.644 715.191C204.113 728.722 199.636 760.955 196.46 778.743C190.854 810.136 194.884 845.255 194.884 876.96C194.884 932.05 194.884 987.14 194.884 1042.23C194.884 1110.37 172.856 1182.51 155.142 1248.12C146.839 1278.87 133.393 1307.97 120.653 1337.05C95.7228 1393.97 70.626 1450.99 43.4449 1506.88C35.7227 1522.75 28.7362 1533.01 18.4093 1545.92C8.55057 1558.24 24.8459 1532.5 27.8633 1527.88C43.073 1504.62 74.4123 1541.49 89.1392 1544.17C136.592 1552.79 178.241 1519.13 223.946 1519.13C246.1 1519.13 262.524 1536.61 282.421 1545.04C306.774 1555.36 333.174 1550.43 359.103 1545.39C392.339 1538.93 426.236 1530.29 458.72 1520.71C474.765 1515.98 491.255 1508.16 508.091 1506.7C527.475 1505.02 530.547 1525.65 541.53 1536.64C558.064 1553.17 603.166 1512.06 615.061 1505.48C644.451 1489.21 675.725 1480.36 707.501 1470.11C720.653 1465.87 734.222 1460.93 748.293 1462.58C763.701 1464.39 772.274 1482.87 781.032 1493.57C791.962 1506.93 804.631 1517.87 816.747 1529.99C820.582 1533.82 824.037 1542.38 830.578 1540.84C859.42 1534.05 887.806 1518.95 915.839 1509.33C941.142 1500.64 963.372 1479.75 987.969 1495.32C1007.42 1507.63 1057.68 1536.1 1081.28 1519.13C1113.92 1495.68 1144.32 1450.65 1157.44 1413.39C1168.1 1383.12 1172.9 1351.94 1163.39 1320.6C1151.94 1282.85 1135.59 1246.18 1120.68 1209.6C1107.78 1177.97 1097.4 1145.28 1082.86 1114.36C1072.07 1091.42 1060.24 1067.52 1052.22 1043.46C1041.88 1012.43 1027.82 989.9 1025.26 956.618C1022.06 915.076 1023.68 873.076 1023.68 831.44C1023.68 789.848 1024.1 750.028 1016.68 709.239C1010.55 675.519 994.784 648.516 980.266 617.5C974.135 604.402 969.289 586.394 952.604 583.361C928.293 578.94 900.364 583.186 875.572 583.186" stroke="white" stroke-width="30" stroke-linecap="round"/>
</svg>
